# xmcd
#
# Track frame offsets: 
#        150
#        15360
#        31715
#        44845
#        60352
#        79415
#        90837
#        104355
#        118250
#        131040
#        147387
#        166842
#        183647
#        197485
#        214847
#        231182
#        247217
#
# Disc length: 3500 seconds
#
# Revision: 0
# Processed by: cddbd v1.5.2PL0 Copyright (c) Steve Scherf et al.
# Submitted via: ExactAudioCopy v1.0b1
#
DISCID=ec0daa11
DTITLE=Steve Fox - FoxSongs.com
DYEAR=2001
DGENRE=Country
TTITLE0=Family
TTITLE1=She Moved
TTITLE2=Livin' Right
TTITLE3=If I Make 80
TTITLE4=Linda's Diner
TTITLE5=Talk Talk Talk
TTITLE6=Follow You Down
TTITLE7=Stone Cold Lonesome Blues
TTITLE8=Hard Boiled Love
TTITLE9=45 Bittersweet Drive
TTITLE10=Two Gold Teeth
TTITLE11=Earnie and Eva
TTITLE12=The Ballad of Big Jack Henry
TTITLE13=Trail of Tears
TTITLE14=24' x 24'
TTITLE15=One Kentucky Summer
TTITLE16=Where Was I?
EXTD=
EXTT0=
EXTT1=
EXTT2=
EXTT3=
EXTT4=
EXTT5=
EXTT6=
EXTT7=
EXTT8=
EXTT9=
EXTT10=
EXTT11=
EXTT12=
EXTT13=
EXTT14=
EXTT15=
EXTT16=
PLAYORDER=
